<?xml-stylesheet type="text/css" href="style.css"?>
<svg display="none" xmlns="http://www.w3.org/2000/svg">
	<symbol id="save" viewBox="0 0 128 128">
		<g>
			<path d="M61.88,93.12h0a3,3,0,0,0,.44.36l.24.13a1.74,1.74,0,0,0,.59.24l.25.07h0a3,3,0,0,0,1.16,0l.26-.08.3-.09a3,3,0,0,0,.3-.16l.21-.12a3,3,0,0,0,.46-.38L93,66.21A3,3,0,1,0,88.79,62L67,83.76V3a3,3,0,0,0-6,0V83.76L39.21,62A3,3,0,0,0,35,66.21Z" />
			<path d="M125,88a3,3,0,0,0-3,3v22a9,9,0,0,1-9,9H15a9,9,0,0,1-9-9V91a3,3,0,0,0-6,0v22a15,15,0,0,0,15,15h98a15,15,0,0,0,15-15V91A3,3,0,0,0,125,88Z" />
		</g>
	</symbol>
	<symbol id="reset" viewBox="0 0 512 512">
		<g>
			<path d="M433.05,127.87a233.52,233.52,0,0,0-101.4-69L459,32.56a5.16,5.16,0,0,0,4-6.11L458.4,4.12a5.18,5.18,0,0,0-6.12-4L268,38.21a5.17,5.17,0,0,0-3.93,6.48l51.38,181a5.17,5.17,0,0,0,6.38,3.57L343.78,223a5.18,5.18,0,0,0,3.57-6.39L310.49,86.92A199.84,199.84,0,0,1,455.75,279.13c0,110.15-89.61,199.75-199.75,199.75S56.25,389.28,56.25,279.13a199.38,199.38,0,0,1,47.54-129.35,5.16,5.16,0,0,0-.49-7.2l-17-15.19a5.18,5.18,0,0,0-7.39.49,232.87,232.87,0,1,0,354.11,0Z" />
		</g>
	</symbol>
	<symbol id="edit" viewBox="0 0 485.219 485.22">
		<g>
			<path d="M467.476,146.438l-21.445,21.455L317.35,39.23l21.445-21.457c23.689-23.692,62.104-23.692,85.795,0l42.886,42.897
		C491.133,84.349,491.133,122.748,467.476,146.438z M167.233,403.748c-5.922,5.922-5.922,15.513,0,21.436
		c5.925,5.955,15.521,5.955,21.443,0L424.59,189.335l-21.469-21.457L167.233,403.748z M60,296.54c-5.925,5.927-5.925,15.514,0,21.44
		c5.922,5.923,15.518,5.923,21.443,0L317.35,82.113L295.914,60.67L60,296.54z M338.767,103.54L102.881,339.421
		c-11.845,11.822-11.815,31.041,0,42.886c11.85,11.846,31.038,11.901,42.914-0.032l235.886-235.837L338.767,103.54z
		 M145.734,446.572c-7.253-7.262-10.749-16.465-12.05-25.948c-3.083,0.476-6.188,0.919-9.36,0.919
		c-16.202,0-31.419-6.333-42.881-17.795c-11.462-11.491-17.77-26.687-17.77-42.887c0-2.954,0.443-5.833,0.859-8.703
		c-9.803-1.335-18.864-5.629-25.972-12.737c-0.682-0.677-0.917-1.596-1.538-2.338L0,485.216l147.748-36.986
		C147.097,447.637,146.36,447.193,145.734,446.572z" />
		</g>
	</symbol>
</svg>
